<svg xmlns="http://www.w3.org/2000/svg" version="1.1" xmlns:xlink="http://www.w3.org/1999/xlink" xmlns:svgjs="http://svgjs.dev/svgjs" width="1000" height="1000" viewBox="0 0 1000 1000"><rect width="1000" height="1000" fill="#000000"></rect><g transform="matrix(0.7,0,0,0.7,149.57575757575756,282.1265587044535)"><svg viewBox="0 0 396 247" data-background-color="#282634" preserveAspectRatio="xMidYMid meet" height="623" width="1000" xmlns="http://www.w3.org/2000/svg" xmlns:xlink="http://www.w3.org/1999/xlink"><g id="tight-bounds" transform="matrix(1,0,0,1,0.2400000000000091,-0.09999999999999432)"><svg viewBox="0 0 395.52 247.2" height="247.2" width="395.52"><g><svg></svg></g><g><svg viewBox="0 0 395.52 247.2" height="247.2" width="395.52"><g transform="matrix(1,0,0,1,75.54432,93.73134648158867)"><svg viewBox="0 0 244.43135999999998 59.737307036822656" height="59.737307036822656" width="244.43135999999998"><g><svg viewBox="0 0 422.16368991129934 103.1738397398324" height="59.737307036822656" width="244.43135999999998"><g><rect width="4.277654190913663" height="103.1738397398324" x="162.25662810019284" y="0" fill="#ffffff" opacity="1" stroke-width="0" stroke="transparent" fill-opacity="1" class="rect-o-0" data-fill-palette-color="primary" rx="1%" id="o-0" data-palette-color="#ff4057"></rect></g><g transform="matrix(1,0,0,1,177.73232991129933,0.25665134263639544)"><svg viewBox="0 0 244.43136 102.66053705455961" height="102.66053705455961" width="244.43136"><g id="textblocktransform"><svg viewBox="0 0 244.43136 102.66053705455961" height="102.66053705455961" width="244.43136" id="textblock"><g><svg viewBox="0 0 244.43136 102.66053705455961" height="102.66053705455961" width="244.43136"><g transform="matrix(1,0,0,1,0,0)"><svg width="244.43136" viewBox="0.7100000381469727 -36.03999710083008 191.6199951171875 76.04999542236328" height="102.66053705455961" data-palette-color="#ff4057"><svg></svg><svg></svg><g class="wordmark-text-0" data-fill-palette-color="primary" id="text-0"><path xmlns="http://www.w3.org/2000/svg" d="M15.6-5.37l10.45-30.18h5.15l-13.16 35.55h-3.66zM5.86-35.55l10.35 30.18 1.29 5.37h-3.66l-13.13-35.55zM41.06-35.55v35.55h-4.73v-35.55zM68.53-8.98v0c0-1.127-0.237-2.08-0.71-2.86-0.473-0.78-1.32-1.487-2.54-2.12-1.22-0.64-2.953-1.283-5.2-1.93v0c-1.753-0.507-3.337-1.08-4.75-1.72-1.407-0.647-2.613-1.383-3.62-2.21-1.007-0.833-1.78-1.787-2.32-2.86-0.54-1.073-0.81-2.303-0.81-3.69v0c0-1.853 0.503-3.51 1.51-4.97 1-1.453 2.403-2.6 4.21-3.44 1.807-0.84 3.92-1.26 6.34-1.26v0c2.687 0 4.967 0.51 6.84 1.53 1.873 1.02 3.297 2.347 4.27 3.98 0.98 1.633 1.47 3.38 1.47 5.24v0h-4.76c0-1.333-0.283-2.523-0.85-3.57-0.56-1.04-1.417-1.857-2.57-2.45-1.153-0.593-2.62-0.89-4.4-0.89v0c-1.66 0-3.03 0.25-4.11 0.75-1.08 0.507-1.88 1.193-2.4 2.06-0.527 0.86-0.79 1.843-0.79 2.95v0c0 0.993 0.287 1.877 0.86 2.65 0.567 0.773 1.46 1.47 2.68 2.09 1.227 0.613 2.807 1.197 4.74 1.75v0c2.687 0.753 4.893 1.627 6.62 2.62 1.727 0.993 3 2.163 3.82 3.51 0.82 1.353 1.23 2.95 1.23 4.79v0c0 1.92-0.513 3.597-1.54 5.03-1.027 1.427-2.467 2.533-4.32 3.32-1.853 0.78-4.033 1.17-6.54 1.17v0c-1.647 0-3.263-0.23-4.85-0.69-1.587-0.453-3.027-1.137-4.32-2.05-1.293-0.907-2.327-2.033-3.1-3.38-0.773-1.34-1.16-2.897-1.16-4.67v0h4.74c0 1.22 0.237 2.27 0.71 3.15 0.467 0.88 1.107 1.603 1.92 2.17 0.813 0.567 1.743 0.987 2.79 1.26 1.04 0.267 2.13 0.4 3.27 0.4v0c1.64 0 3.027-0.233 4.16-0.7 1.133-0.46 1.997-1.113 2.59-1.96 0.593-0.847 0.89-1.847 0.89-3zM99.58-35.55h4.77v24.05c0 2.667-0.6 4.89-1.8 6.67-1.193 1.773-2.773 3.103-4.74 3.99-1.96 0.887-4.087 1.33-6.38 1.33v0c-2.407 0-4.583-0.443-6.53-1.33-1.947-0.887-3.483-2.217-4.61-3.99-1.133-1.78-1.7-4.003-1.7-6.67v0-24.05h4.69v24.05c0 1.853 0.34 3.383 1.02 4.59 0.687 1.207 1.64 2.107 2.86 2.7 1.22 0.593 2.643 0.89 4.27 0.89v0c1.647 0 3.08-0.297 4.3-0.89 1.22-0.593 2.167-1.493 2.84-2.7 0.673-1.207 1.01-2.737 1.01-4.59v0zM124.37-32.42l-11.75 32.42h-4.88l13.57-35.55h3.13zM134.2 0l-11.79-32.42-0.05-3.13h3.1l13.6 35.55zM133.62-13.13v3.83h-20v-3.83zM165.43-3.81v3.81h-17.77v-3.81zM148.58-35.55v35.55h-4.73v-35.55z" fill="#ffffff" fill-rule="nonzero" stroke="none" stroke-width="1" stroke-linecap="butt" stroke-linejoin="miter" stroke-miterlimit="10" stroke-dasharray="" stroke-dashoffset="0" font-family="none" font-weight="none" font-size="none" text-anchor="none" style="mix-blend-mode: normal" data-fill-palette-color="primary" opacity="1"></path><path xmlns="http://www.w3.org/2000/svg" d="M16.8 22.87h-8.99l-0.05-3.74h8.16c2.02 0 3.647-0.503 4.88-1.51 1.24-1.007 1.86-2.413 1.86-4.22v0c0-1.953-0.567-3.373-1.7-4.26-1.133-0.887-2.853-1.33-5.16-1.33v0h-6.94v31.71h-4.73v-35.55h11.67c3.627 0 6.467 0.753 8.52 2.26 2.047 1.507 3.07 3.913 3.07 7.22v0c0 1.46-0.373 2.78-1.12 3.96-0.747 1.18-1.793 2.147-3.14 2.9-1.34 0.747-2.897 1.227-4.67 1.44v0zM16.58 39.52h-10.65l2.71-3.81h7.94c2.227 0 3.95-0.577 5.17-1.73 1.22-1.16 1.83-2.717 1.83-4.67v0c0-1.313-0.233-2.457-0.7-3.43-0.473-0.967-1.207-1.71-2.2-2.23-0.993-0.52-2.287-0.78-3.88-0.78v0h-6.72l0.05-3.74h9.18l1 1.37c1.713 0.147 3.163 0.627 4.35 1.44 1.187 0.813 2.093 1.857 2.72 3.13 0.627 1.267 0.94 2.667 0.94 4.2v0c0 3.333-1.07 5.877-3.21 7.63-2.14 1.747-4.983 2.62-8.53 2.62zM48.46 7.1l-11.74 32.42h-4.88l13.57-35.55h3.13zM58.3 39.52l-11.79-32.42-0.05-3.13h3.1l13.6 35.55zM57.71 26.39v3.83h-19.99v-3.83zM66.06 3.97l9.21 17.87 9.23-17.87h5.37l-12.23 22.27v13.28h-4.76v-13.28l-12.24-22.27zM117.02 35.71v3.81h-18.78v-3.81zM99.17 3.97v35.55h-4.74v-35.55zM114.53 19.26v3.8h-16.29v-3.8zM116.77 3.97v3.84h-18.53v-3.84zM141.77 30.54v0c0-1.127-0.237-2.08-0.71-2.86-0.467-0.78-1.31-1.487-2.53-2.12-1.227-0.64-2.96-1.283-5.2-1.93v0c-1.76-0.507-3.343-1.08-4.75-1.72-1.413-0.647-2.623-1.383-3.63-2.21-1.007-0.833-1.78-1.787-2.32-2.86-0.533-1.073-0.8-2.303-0.8-3.69v0c0-1.853 0.5-3.51 1.5-4.97 1-1.453 2.403-2.6 4.21-3.44 1.807-0.84 3.923-1.26 6.35-1.26v0c2.687 0 4.963 0.51 6.83 1.53 1.873 1.02 3.3 2.347 4.28 3.98 0.973 1.633 1.46 3.38 1.46 5.24v0h-4.76c0-1.333-0.28-2.523-0.84-3.57-0.567-1.04-1.427-1.857-2.58-2.45-1.153-0.593-2.617-0.89-4.39-0.89v0c-1.66 0-3.033 0.25-4.12 0.75-1.08 0.507-1.88 1.193-2.4 2.06-0.52 0.86-0.78 1.843-0.78 2.95v0c0 0.993 0.283 1.877 0.85 2.65 0.573 0.773 1.47 1.47 2.69 2.09 1.22 0.613 2.797 1.197 4.73 1.75v0c2.687 0.753 4.893 1.627 6.62 2.62 1.727 0.993 3 2.163 3.82 3.51 0.82 1.353 1.23 2.95 1.23 4.79v0c0 1.92-0.51 3.597-1.53 5.03-1.027 1.427-2.47 2.533-4.33 3.32-1.853 0.78-4.033 1.17-6.54 1.17v0c-1.64 0-3.257-0.23-4.85-0.69-1.587-0.453-3.027-1.137-4.32-2.05-1.293-0.907-2.327-2.033-3.1-3.38-0.773-1.34-1.16-2.897-1.16-4.67v0h4.74c0 1.22 0.237 2.27 0.71 3.15 0.473 0.88 1.117 1.603 1.93 2.17 0.813 0.567 1.74 0.987 2.78 1.26 1.04 0.267 2.13 0.4 3.27 0.4v0c1.647 0 3.033-0.233 4.16-0.7 1.133-0.46 1.997-1.113 2.59-1.96 0.593-0.847 0.89-1.847 0.89-3zM157.62 3.97v35.55h-4.74v-35.55zM187.6 28.24h4.73c-0.24 2.233-0.88 4.24-1.92 6.02-1.047 1.78-2.52 3.183-4.42 4.21-1.907 1.027-4.293 1.54-7.16 1.54v0c-2.78 0-5.213-0.68-7.3-2.04-2.08-1.36-3.7-3.277-4.86-5.75-1.153-2.473-1.73-5.363-1.73-8.67v0-3.59c0-3.32 0.583-6.21 1.75-8.67 1.16-2.467 2.817-4.383 4.97-5.75 2.147-1.373 4.683-2.06 7.61-2.06v0c2.687 0 4.957 0.503 6.81 1.51 1.86 1 3.307 2.393 4.34 4.18 1.033 1.793 1.67 3.86 1.91 6.2v0h-4.73c-0.36-2.487-1.153-4.45-2.38-5.89-1.233-1.44-3.217-2.16-5.95-2.16v0c-2.1 0-3.857 0.523-5.27 1.57-1.413 1.053-2.483 2.523-3.21 4.41-0.727 1.887-1.09 4.093-1.09 6.62v0 3.63c0 2.327 0.327 4.447 0.98 6.36 0.653 1.913 1.65 3.44 2.99 4.58 1.34 1.14 3.06 1.71 5.16 1.71v0c2.007 0 3.6-0.317 4.78-0.95 1.18-0.633 2.073-1.547 2.68-2.74 0.613-1.187 1.05-2.61 1.31-4.27z" fill="#ffffff" fill-rule="nonzero" stroke="none" stroke-width="1" stroke-linecap="butt" stroke-linejoin="miter" stroke-miterlimit="10" stroke-dasharray="" stroke-dashoffset="0" font-family="none" font-weight="none" font-size="none" text-anchor="none" style="mix-blend-mode: normal" data-fill-palette-color="primary" opacity="1"></path></g></svg></g></svg></g></svg></g></svg></g><g transform="matrix(1,0,0,1,0,15.97869894486827)"><svg viewBox="0 0 151.05858048000002 71.21644185009586" height="71.21644185009586" width="151.05858048000002"><g><svg xmlns="http://www.w3.org/2000/svg" xmlns:xlink="http://www.w3.org/1999/xlink" version="1.1" x="0" y="0" viewBox="47.60000228881836 70.19999694824219 99.90473937988281 47.100006103515625" enable-background="new 47.6 70.2 100 47.1" xml:space="preserve" width="151.05858048000002" height="71.21644185009586" class="icon-icon-0" data-fill-palette-color="accent" id="icon-0"><path d="M144.3 75.7h-38.2c-1.8 0-3.3 1.5-3.3 3.3v8.1c-5.6-0.1-5.7-2.1-5.9-4.7-0.2-3.1-0.4-6.9-9.8-6.9v-2c0-1.8-1.5-3.3-3.3-3.3H50.9c-1.8 0-3.3 1.5-3.3 3.3V78c0 1.8 1.5 3.3 3.3 3.3h32.9c1.8 0 3.3-1.5 3.3-3.3v-0.8c7.9 0 8 2.5 8.2 5.4 0.1 2 0.3 4.4 3.2 5.6-3.3 1.8-3.5 6-3.8 9.8-0.3 5.4-0.6 10.1-7.7 10.1v-4.4c0-1.8-1.5-3.3-3.3-3.3H56.2c-1.8 0-3.3 1.5-3.3 3.3V114c0 1.8 1.5 3.3 3.3 3.3h27.5c1.8 0 3.3-1.5 3.3-3.3v-4.4c8.7 0 9-6.4 9.3-11.6 0.3-5.7 0.8-9.2 6.4-9.2v8.1c0 1.8 1.5 3.3 3.3 3.3h38.2c1.8 0 3.3-1.5 3.3-3.3V79C147.6 77.2 146.1 75.7 144.3 75.7z" fill="#ffffff" data-fill-palette-color="accent"></path></svg></g></svg></g></svg></g></svg></g><path d="M201.728 87.731L201.728 23.141 0.809 23.141 0.809 224.059 201.728 224.059 201.728 159.469 199.251 159.469 199.251 221.583 3.285 221.583 3.285 25.617 199.251 25.617 199.251 87.731Z" fill="#ffffff" stroke="transparent" data-fill-palette-color="primary"></path></svg></g><defs></defs></svg><rect width="395.52" height="247.2" fill="none" stroke="none" visibility="hidden"></rect></g></svg></g></svg>